# File produced by Open Asset Import Library (http://www.assimp.sf.net)
# (assimp v3.3.10147455)

mtllib sample_graph_out.obj.mtl

# 6 vertex positions
v  0.0009035907569341362 1.998946309089661 0
v  1.999092221260071 1.998812437057495 0
v  0.9995907545089722 1.000508546829224 0
v  0.0005895929061807692 0.001308743143454194 0
v  1.64960241317749 0.850452184677124 0
v  2.999824285507202 1.000424265861511 0

# 0 UV coordinates

# 1 vertex normals
vn 0 0 -1

# Mesh 'defaultobject_defaultobject' with 5 faces
g defaultobject_defaultobject
usemtl DefaultMaterial
f  1//1 2//1 3//1
f  1//1 3//1 4//1
f  3//1 2//1 5//1
f  3//1 5//1 4//1
f  2//1 6//1 5//1

