# Blender v2.75 (sub 0) OBJ File: 'plane.blend'
# www.blender.org
mtllib plane.mtl
o Plane
v 0.000000 -1.000000 1.000000
v -0.000000 -1.000000 -1.000000
v 0.000000 1.000000 1.000000
v 0.000000 1.000000 -1.000000
v 0.000000 0.000000 1.000000
v -0.000000 -1.000000 0.000000
v -0.000000 0.000000 -1.000000
v 0.000000 1.000000 -0.000000
v 0.000000 0.000000 0.000000
vn 1.000000 -0.000000 -0.000000
usemtl None
s off
f 9//1 7//1 4//1 8//1
f 5//1 9//1 8//1 3//1
f 1//1 6//1 9//1 5//1
f 6//1 2//1 7//1 9//1
